<mxfile host="app.diagrams.net" modified="2021-11-15T07:51:04.662Z" agent="5.0 (Macintosh; Intel Mac OS X 10_14_6) AppleWebKit/537.36 (KHTML, like Gecko) Chrome/94.0.4606.81 Safari/537.36" etag="WvlVvveWPuJG4fV0sJsU" version="15.6.8" type="github">
  <diagram id="UrERXHZdIGTIm_CbAjfe" name="Page-1">
    <mxGraphModel dx="2253" dy="672" grid="1" gridSize="10" guides="1" tooltips="1" connect="1" arrows="1" fold="1" page="1" pageScale="1" pageWidth="827" pageHeight="1169" math="0" shadow="0">
      <root>
        <mxCell id="0" />
        <mxCell id="1" parent="0" />
        <mxCell id="cH-sBmM9aZV_j8s1_zVg-36" value="" style="rounded=0;whiteSpace=wrap;html=1;fontSize=6;align=left;" vertex="1" parent="1">
          <mxGeometry x="290" y="30" width="550" height="490" as="geometry" />
        </mxCell>
        <mxCell id="cH-sBmM9aZV_j8s1_zVg-25" value="" style="shape=note;whiteSpace=wrap;html=1;backgroundOutline=1;darkOpacity=0.05;fontSize=6;align=left;" vertex="1" parent="1">
          <mxGeometry x="90" y="70" width="170" height="180" as="geometry" />
        </mxCell>
        <mxCell id="cH-sBmM9aZV_j8s1_zVg-1" value="AI Distribution Service&amp;nbsp;&lt;br&gt;(stateless)" style="rounded=0;whiteSpace=wrap;html=1;" vertex="1" parent="1">
          <mxGeometry x="670" y="240" width="120" height="60" as="geometry" />
        </mxCell>
        <mxCell id="cH-sBmM9aZV_j8s1_zVg-2" value="Proxy Distribution Service&amp;nbsp;" style="rounded=0;whiteSpace=wrap;html=1;" vertex="1" parent="1">
          <mxGeometry x="294" y="240" width="120" height="60" as="geometry" />
        </mxCell>
        <mxCell id="cH-sBmM9aZV_j8s1_zVg-3" value="LINE-MAN Driver System?" style="rounded=0;whiteSpace=wrap;html=1;" vertex="1" parent="1">
          <mxGeometry x="-50" y="240" width="120" height="60" as="geometry" />
        </mxCell>
        <mxCell id="cH-sBmM9aZV_j8s1_zVg-4" value="OrderInfo" style="shape=cylinder3;whiteSpace=wrap;html=1;boundedLbl=1;backgroundOutline=1;size=15;" vertex="1" parent="1">
          <mxGeometry x="-30" y="370" width="60" height="80" as="geometry" />
        </mxCell>
        <mxCell id="cH-sBmM9aZV_j8s1_zVg-5" value="" style="endArrow=classic;html=1;rounded=0;exitX=0.5;exitY=0;exitDx=0;exitDy=0;exitPerimeter=0;entryX=0.133;entryY=1.05;entryDx=0;entryDy=0;entryPerimeter=0;" edge="1" parent="1" source="cH-sBmM9aZV_j8s1_zVg-4" target="cH-sBmM9aZV_j8s1_zVg-3">
          <mxGeometry width="50" height="50" relative="1" as="geometry">
            <mxPoint x="390" y="360" as="sourcePoint" />
            <mxPoint y="300" as="targetPoint" />
          </mxGeometry>
        </mxCell>
        <mxCell id="cH-sBmM9aZV_j8s1_zVg-15" value="2.get to-dispatch order and &lt;br&gt;assigned orders of each rider&amp;nbsp;" style="edgeLabel;html=1;align=center;verticalAlign=middle;resizable=0;points=[];fontSize=6;" vertex="1" connectable="0" parent="cH-sBmM9aZV_j8s1_zVg-5">
          <mxGeometry x="0.0143" y="-1" relative="1" as="geometry">
            <mxPoint x="-91" y="-4" as="offset" />
          </mxGeometry>
        </mxCell>
        <mxCell id="cH-sBmM9aZV_j8s1_zVg-6" value="RiderInfo&lt;br&gt;(positon)" style="shape=cylinder3;whiteSpace=wrap;html=1;boundedLbl=1;backgroundOutline=1;size=15;" vertex="1" parent="1">
          <mxGeometry x="-30" y="90" width="60" height="80" as="geometry" />
        </mxCell>
        <mxCell id="cH-sBmM9aZV_j8s1_zVg-7" value="" style="endArrow=classic;html=1;rounded=0;exitX=0.5;exitY=1;exitDx=0;exitDy=0;exitPerimeter=0;entryX=0.425;entryY=0;entryDx=0;entryDy=0;entryPerimeter=0;" edge="1" parent="1" source="cH-sBmM9aZV_j8s1_zVg-6" target="cH-sBmM9aZV_j8s1_zVg-3">
          <mxGeometry width="50" height="50" relative="1" as="geometry">
            <mxPoint x="20" y="380" as="sourcePoint" />
            <mxPoint x="90" y="280" as="targetPoint" />
          </mxGeometry>
        </mxCell>
        <mxCell id="cH-sBmM9aZV_j8s1_zVg-8" value="1.select riders within 10km?&amp;nbsp;" style="edgeLabel;html=1;align=center;verticalAlign=middle;resizable=0;points=[];" vertex="1" connectable="0" parent="cH-sBmM9aZV_j8s1_zVg-7">
          <mxGeometry x="-0.0098" relative="1" as="geometry">
            <mxPoint x="-85" as="offset" />
          </mxGeometry>
        </mxCell>
        <mxCell id="cH-sBmM9aZV_j8s1_zVg-9" value="Statistics Feature" style="shape=cylinder3;whiteSpace=wrap;html=1;boundedLbl=1;backgroundOutline=1;size=15;" vertex="1" parent="1">
          <mxGeometry x="324" y="365" width="60" height="80" as="geometry" />
        </mxCell>
        <mxCell id="cH-sBmM9aZV_j8s1_zVg-10" value="Rider&lt;br&gt;PlanRoutes" style="shape=cylinder3;whiteSpace=wrap;html=1;boundedLbl=1;backgroundOutline=1;size=15;" vertex="1" parent="1">
          <mxGeometry x="324" y="80" width="60" height="80" as="geometry" />
        </mxCell>
        <mxCell id="cH-sBmM9aZV_j8s1_zVg-11" value="" style="endArrow=classic;html=1;rounded=0;exitX=1;exitY=0.5;exitDx=0;exitDy=0;" edge="1" parent="1" source="cH-sBmM9aZV_j8s1_zVg-2" target="cH-sBmM9aZV_j8s1_zVg-1">
          <mxGeometry width="50" height="50" relative="1" as="geometry">
            <mxPoint x="530" y="230" as="sourcePoint" />
            <mxPoint x="580" y="180" as="targetPoint" />
          </mxGeometry>
        </mxCell>
        <mxCell id="cH-sBmM9aZV_j8s1_zVg-21" value="6. Grpc Request" style="edgeLabel;html=1;align=center;verticalAlign=middle;resizable=0;points=[];fontSize=6;" vertex="1" connectable="0" parent="cH-sBmM9aZV_j8s1_zVg-11">
          <mxGeometry x="0.08" y="2" relative="1" as="geometry">
            <mxPoint as="offset" />
          </mxGeometry>
        </mxCell>
        <mxCell id="cH-sBmM9aZV_j8s1_zVg-14" value="" style="endArrow=classic;html=1;rounded=0;exitX=1;exitY=0.5;exitDx=0;exitDy=0;" edge="1" parent="1" source="cH-sBmM9aZV_j8s1_zVg-3" target="cH-sBmM9aZV_j8s1_zVg-2">
          <mxGeometry width="50" height="50" relative="1" as="geometry">
            <mxPoint x="460" y="280" as="sourcePoint" />
            <mxPoint x="660" y="280" as="targetPoint" />
          </mxGeometry>
        </mxCell>
        <mxCell id="cH-sBmM9aZV_j8s1_zVg-16" value="3.Http Request" style="edgeLabel;html=1;align=center;verticalAlign=middle;resizable=0;points=[];fontSize=6;" vertex="1" connectable="0" parent="cH-sBmM9aZV_j8s1_zVg-14">
          <mxGeometry x="0.05" relative="1" as="geometry">
            <mxPoint as="offset" />
          </mxGeometry>
        </mxCell>
        <mxCell id="cH-sBmM9aZV_j8s1_zVg-17" value="" style="endArrow=classic;html=1;rounded=0;exitX=0.5;exitY=1;exitDx=0;exitDy=0;exitPerimeter=0;entryX=0.5;entryY=0;entryDx=0;entryDy=0;" edge="1" parent="1" source="cH-sBmM9aZV_j8s1_zVg-10" target="cH-sBmM9aZV_j8s1_zVg-2">
          <mxGeometry width="50" height="50" relative="1" as="geometry">
            <mxPoint x="320" y="380" as="sourcePoint" />
            <mxPoint x="430" y="310" as="targetPoint" />
          </mxGeometry>
        </mxCell>
        <mxCell id="cH-sBmM9aZV_j8s1_zVg-38" value="4. get rider plan routes&amp;nbsp;&lt;br&gt;&amp;nbsp;" style="edgeLabel;html=1;align=center;verticalAlign=middle;resizable=0;points=[];fontSize=6;" vertex="1" connectable="0" parent="cH-sBmM9aZV_j8s1_zVg-17">
          <mxGeometry x="-0.1622" y="-1" relative="1" as="geometry">
            <mxPoint x="1" y="16" as="offset" />
          </mxGeometry>
        </mxCell>
        <mxCell id="cH-sBmM9aZV_j8s1_zVg-19" value="" style="endArrow=classic;html=1;rounded=0;exitX=0.5;exitY=0;exitDx=0;exitDy=0;exitPerimeter=0;entryX=0.5;entryY=1;entryDx=0;entryDy=0;" edge="1" parent="1" source="cH-sBmM9aZV_j8s1_zVg-9" target="cH-sBmM9aZV_j8s1_zVg-2">
          <mxGeometry width="50" height="50" relative="1" as="geometry">
            <mxPoint x="350" y="380" as="sourcePoint" />
            <mxPoint x="390" y="300" as="targetPoint" />
          </mxGeometry>
        </mxCell>
        <mxCell id="cH-sBmM9aZV_j8s1_zVg-39" value="5.get statistics features&amp;nbsp;" style="edgeLabel;html=1;align=center;verticalAlign=middle;resizable=0;points=[];fontSize=6;" vertex="1" connectable="0" parent="cH-sBmM9aZV_j8s1_zVg-19">
          <mxGeometry x="-0.0212" y="3" relative="1" as="geometry">
            <mxPoint x="9" y="12" as="offset" />
          </mxGeometry>
        </mxCell>
        <mxCell id="cH-sBmM9aZV_j8s1_zVg-22" value="" style="shape=note;whiteSpace=wrap;html=1;backgroundOutline=1;darkOpacity=0.05;fontSize=6;align=left;" vertex="1" parent="1">
          <mxGeometry x="460" y="80" width="190" height="180" as="geometry" />
        </mxCell>
        <mxCell id="cH-sBmM9aZV_j8s1_zVg-13" value="&lt;div&gt;&lt;font color=&quot;#172b4d&quot;&gt;&lt;span style=&quot;font-size: 14px&quot;&gt;{&lt;/span&gt;&lt;/font&gt;&lt;/div&gt;&lt;div&gt;&lt;font color=&quot;#172b4d&quot;&gt;&lt;span style=&quot;font-size: 14px&quot;&gt;&amp;nbsp; &amp;nbsp; &quot;order&quot;: {},&lt;/span&gt;&lt;/font&gt;&lt;/div&gt;&lt;div&gt;&lt;font color=&quot;#172b4d&quot;&gt;&lt;span style=&quot;font-size: 14px&quot;&gt;&amp;nbsp; &amp;nbsp; &quot;riders&quot;: [&lt;/span&gt;&lt;/font&gt;&lt;/div&gt;&lt;div&gt;&lt;font color=&quot;#172b4d&quot;&gt;&lt;span style=&quot;font-size: 14px&quot;&gt;&amp;nbsp; &amp;nbsp; &amp;nbsp; &amp;nbsp; {&lt;/span&gt;&lt;/font&gt;&lt;/div&gt;&lt;div&gt;&lt;font color=&quot;#172b4d&quot;&gt;&lt;span style=&quot;font-size: 14px&quot;&gt;&amp;nbsp; &amp;nbsp; &amp;nbsp; &amp;nbsp; &amp;nbsp; &amp;nbsp; &quot;assigned_orders&quot;: {},&lt;/span&gt;&lt;/font&gt;&lt;/div&gt;&lt;div&gt;&lt;font color=&quot;#172b4d&quot;&gt;&lt;span style=&quot;font-size: 14px&quot;&gt;&amp;nbsp; &amp;nbsp; &amp;nbsp; &amp;nbsp; &amp;nbsp; &amp;nbsp; &quot;&lt;b&gt;plan_routes&lt;/b&gt;&quot;: []&lt;/span&gt;&lt;/font&gt;&lt;/div&gt;&lt;div&gt;&lt;font color=&quot;#172b4d&quot;&gt;&lt;span style=&quot;font-size: 14px&quot;&gt;&amp;nbsp; &amp;nbsp; &amp;nbsp; &amp;nbsp; }&lt;/span&gt;&lt;/font&gt;&lt;/div&gt;&lt;div&gt;&lt;font color=&quot;#172b4d&quot;&gt;&lt;span style=&quot;font-size: 14px&quot;&gt;&amp;nbsp; &amp;nbsp; ],&lt;/span&gt;&lt;/font&gt;&lt;/div&gt;&lt;div&gt;&lt;font color=&quot;#172b4d&quot;&gt;&lt;span style=&quot;font-size: 14px&quot;&gt;&amp;nbsp; &amp;nbsp; &quot;&lt;b&gt;features&lt;/b&gt;&quot;: {},&lt;/span&gt;&lt;/font&gt;&lt;/div&gt;&lt;div&gt;&lt;font color=&quot;#172b4d&quot;&gt;&lt;span style=&quot;font-size: 14px&quot;&gt;}&lt;/span&gt;&lt;/font&gt;&lt;/div&gt;" style="text;html=1;strokeColor=none;fillColor=none;align=left;verticalAlign=middle;whiteSpace=wrap;rounded=0;fontSize=6;" vertex="1" parent="1">
          <mxGeometry x="460" y="80" width="210" height="180" as="geometry" />
        </mxCell>
        <mxCell id="cH-sBmM9aZV_j8s1_zVg-23" value="&lt;div&gt;&lt;font color=&quot;#172b4d&quot;&gt;&lt;span style=&quot;font-size: 14px&quot;&gt;{&lt;/span&gt;&lt;/font&gt;&lt;/div&gt;&lt;div&gt;&lt;font color=&quot;#172b4d&quot;&gt;&lt;span style=&quot;font-size: 14px&quot;&gt;&amp;nbsp; &amp;nbsp; &quot;order&quot;: {},&lt;/span&gt;&lt;/font&gt;&lt;/div&gt;&lt;div&gt;&lt;font color=&quot;#172b4d&quot;&gt;&lt;span style=&quot;font-size: 14px&quot;&gt;&amp;nbsp; &amp;nbsp; &quot;riders&quot;: [&lt;/span&gt;&lt;/font&gt;&lt;/div&gt;&lt;div&gt;&lt;font color=&quot;#172b4d&quot;&gt;&lt;span style=&quot;font-size: 14px&quot;&gt;&amp;nbsp; &amp;nbsp; &amp;nbsp; &amp;nbsp; {&lt;/span&gt;&lt;/font&gt;&lt;/div&gt;&lt;div&gt;&lt;font color=&quot;#172b4d&quot;&gt;&lt;span style=&quot;font-size: 14px&quot;&gt;&amp;nbsp; &amp;nbsp; &amp;nbsp; &amp;nbsp; &amp;nbsp; &amp;nbsp; &quot;assigned_orders&quot;: {},&lt;/span&gt;&lt;/font&gt;&lt;/div&gt;&lt;div&gt;&lt;font color=&quot;#172b4d&quot;&gt;&lt;span style=&quot;font-size: 14px&quot;&gt;&amp;nbsp; &amp;nbsp; &amp;nbsp; &amp;nbsp; }&lt;/span&gt;&lt;/font&gt;&lt;/div&gt;&lt;div&gt;&lt;font color=&quot;#172b4d&quot;&gt;&lt;span style=&quot;font-size: 14px&quot;&gt;&amp;nbsp; &amp;nbsp; ],&lt;/span&gt;&lt;/font&gt;&lt;/div&gt;&lt;div&gt;&lt;font color=&quot;#172b4d&quot;&gt;&lt;span style=&quot;font-size: 14px&quot;&gt;}&lt;/span&gt;&lt;/font&gt;&lt;/div&gt;" style="text;html=1;strokeColor=none;fillColor=none;align=left;verticalAlign=middle;whiteSpace=wrap;rounded=0;fontSize=6;" vertex="1" parent="1">
          <mxGeometry x="90" y="80" width="190" height="180" as="geometry" />
        </mxCell>
        <mxCell id="cH-sBmM9aZV_j8s1_zVg-26" value="" style="endArrow=classic;html=1;rounded=0;entryX=1;entryY=0.75;entryDx=0;entryDy=0;exitX=0;exitY=0.75;exitDx=0;exitDy=0;" edge="1" parent="1" source="cH-sBmM9aZV_j8s1_zVg-1" target="cH-sBmM9aZV_j8s1_zVg-2">
          <mxGeometry width="50" height="50" relative="1" as="geometry">
            <mxPoint x="710" y="380" as="sourcePoint" />
            <mxPoint x="680" y="280" as="targetPoint" />
          </mxGeometry>
        </mxCell>
        <mxCell id="cH-sBmM9aZV_j8s1_zVg-27" value="7. Grpc Response" style="edgeLabel;html=1;align=center;verticalAlign=middle;resizable=0;points=[];fontSize=6;" vertex="1" connectable="0" parent="cH-sBmM9aZV_j8s1_zVg-26">
          <mxGeometry x="0.08" y="2" relative="1" as="geometry">
            <mxPoint as="offset" />
          </mxGeometry>
        </mxCell>
        <mxCell id="cH-sBmM9aZV_j8s1_zVg-28" value="" style="shape=note;whiteSpace=wrap;html=1;backgroundOutline=1;darkOpacity=0.05;fontSize=6;align=left;" vertex="1" parent="1">
          <mxGeometry x="460" y="310" width="190" height="180" as="geometry" />
        </mxCell>
        <mxCell id="cH-sBmM9aZV_j8s1_zVg-29" value="&lt;div&gt;&amp;nbsp; &amp;nbsp; {&lt;/div&gt;&lt;div&gt;&lt;font color=&quot;#172b4d&quot;&gt;&lt;span style=&quot;font-size: 14px&quot;&gt;&amp;nbsp; &amp;nbsp; &amp;nbsp; &amp;nbsp; &quot;order&quot;: {},&lt;/span&gt;&lt;/font&gt;&lt;/div&gt;&lt;div&gt;&lt;font color=&quot;#172b4d&quot;&gt;&lt;span style=&quot;font-size: 14px&quot;&gt;&amp;nbsp; &amp;nbsp; &amp;nbsp; &amp;nbsp; &quot;riders&quot;: [&lt;/span&gt;&lt;/font&gt;&lt;/div&gt;&lt;div&gt;&lt;font color=&quot;#172b4d&quot;&gt;&lt;span style=&quot;font-size: 14px&quot;&gt;&amp;nbsp; &amp;nbsp; &amp;nbsp; &amp;nbsp; &amp;nbsp; &amp;nbsp; {&lt;/span&gt;&lt;/font&gt;&lt;/div&gt;&lt;div&gt;&lt;font color=&quot;#172b4d&quot;&gt;&lt;span style=&quot;font-size: 14px&quot;&gt;&amp;nbsp; &amp;nbsp; &amp;nbsp; &amp;nbsp; &amp;nbsp; &amp;nbsp; &amp;nbsp; &amp;nbsp; &quot;plan_routes&quot;: []&lt;/span&gt;&lt;/font&gt;&lt;/div&gt;&lt;div&gt;&lt;font color=&quot;#172b4d&quot;&gt;&lt;span style=&quot;font-size: 14px&quot;&gt;&amp;nbsp; &amp;nbsp; &amp;nbsp; &amp;nbsp; &amp;nbsp; &amp;nbsp; }&lt;/span&gt;&lt;/font&gt;&lt;/div&gt;&lt;div&gt;&lt;font color=&quot;#172b4d&quot;&gt;&lt;span style=&quot;font-size: 14px&quot;&gt;&amp;nbsp; &amp;nbsp; &amp;nbsp; &amp;nbsp; ]&lt;/span&gt;&lt;/font&gt;&lt;/div&gt;&lt;div&gt;&lt;font color=&quot;#172b4d&quot;&gt;&lt;span style=&quot;font-size: 14px&quot;&gt;&amp;nbsp; &amp;nbsp; }&lt;/span&gt;&lt;/font&gt;&lt;/div&gt;&lt;div&gt;&lt;br&gt;&lt;/div&gt;" style="text;html=1;strokeColor=none;fillColor=none;align=left;verticalAlign=middle;whiteSpace=wrap;rounded=0;fontSize=6;" vertex="1" parent="1">
          <mxGeometry x="460" y="320" width="210" height="180" as="geometry" />
        </mxCell>
        <mxCell id="cH-sBmM9aZV_j8s1_zVg-30" value="" style="endArrow=classic;html=1;rounded=0;entryX=1;entryY=0.75;entryDx=0;entryDy=0;exitX=-0.017;exitY=0.867;exitDx=0;exitDy=0;exitPerimeter=0;" edge="1" parent="1" source="cH-sBmM9aZV_j8s1_zVg-2">
          <mxGeometry width="50" height="50" relative="1" as="geometry">
            <mxPoint x="290" y="290" as="sourcePoint" />
            <mxPoint x="67" y="290" as="targetPoint" />
          </mxGeometry>
        </mxCell>
        <mxCell id="cH-sBmM9aZV_j8s1_zVg-31" value="9. Http Response" style="edgeLabel;html=1;align=center;verticalAlign=middle;resizable=0;points=[];fontSize=6;" vertex="1" connectable="0" parent="cH-sBmM9aZV_j8s1_zVg-30">
          <mxGeometry x="0.08" y="2" relative="1" as="geometry">
            <mxPoint as="offset" />
          </mxGeometry>
        </mxCell>
        <mxCell id="cH-sBmM9aZV_j8s1_zVg-32" value="" style="shape=note;whiteSpace=wrap;html=1;backgroundOutline=1;darkOpacity=0.05;fontSize=6;align=left;" vertex="1" parent="1">
          <mxGeometry x="90" y="315" width="170" height="180" as="geometry" />
        </mxCell>
        <mxCell id="cH-sBmM9aZV_j8s1_zVg-33" value="&lt;div&gt;&amp;nbsp; &amp;nbsp; {&lt;/div&gt;&lt;div&gt;&lt;font color=&quot;#172b4d&quot;&gt;&lt;span style=&quot;font-size: 14px&quot;&gt;&amp;nbsp; &amp;nbsp; &amp;nbsp; &amp;nbsp; &quot;order&quot;: {},&lt;/span&gt;&lt;/font&gt;&lt;/div&gt;&lt;div&gt;&lt;font color=&quot;#172b4d&quot;&gt;&lt;span style=&quot;font-size: 14px&quot;&gt;&amp;nbsp; &amp;nbsp; &amp;nbsp; &amp;nbsp; &quot;riders&quot;: [&lt;/span&gt;&lt;/font&gt;&lt;/div&gt;&lt;div&gt;&lt;font color=&quot;#172b4d&quot;&gt;&lt;span style=&quot;font-size: 14px&quot;&gt;&amp;nbsp; &amp;nbsp; &amp;nbsp; &amp;nbsp; &amp;nbsp; &amp;nbsp; {&lt;/span&gt;&lt;/font&gt;&lt;/div&gt;&lt;div&gt;&lt;font color=&quot;#172b4d&quot;&gt;&lt;span style=&quot;font-size: 14px&quot;&gt;&amp;nbsp; &amp;nbsp; &amp;nbsp; &amp;nbsp; &amp;nbsp; &amp;nbsp; &amp;nbsp; &amp;nbsp; &quot;plan_routes&quot;: []&lt;/span&gt;&lt;/font&gt;&lt;/div&gt;&lt;div&gt;&lt;font color=&quot;#172b4d&quot;&gt;&lt;span style=&quot;font-size: 14px&quot;&gt;&amp;nbsp; &amp;nbsp; &amp;nbsp; &amp;nbsp; &amp;nbsp; &amp;nbsp; }&lt;/span&gt;&lt;/font&gt;&lt;/div&gt;&lt;div&gt;&lt;font color=&quot;#172b4d&quot;&gt;&lt;span style=&quot;font-size: 14px&quot;&gt;&amp;nbsp; &amp;nbsp; &amp;nbsp; &amp;nbsp; ]&lt;/span&gt;&lt;/font&gt;&lt;/div&gt;&lt;div&gt;&lt;font color=&quot;#172b4d&quot;&gt;&lt;span style=&quot;font-size: 14px&quot;&gt;&amp;nbsp; &amp;nbsp; }&lt;/span&gt;&lt;/font&gt;&lt;/div&gt;&lt;div&gt;&lt;br&gt;&lt;/div&gt;" style="text;html=1;strokeColor=none;fillColor=none;align=left;verticalAlign=middle;whiteSpace=wrap;rounded=0;fontSize=6;" vertex="1" parent="1">
          <mxGeometry x="90" y="325" width="170" height="180" as="geometry" />
        </mxCell>
        <mxCell id="cH-sBmM9aZV_j8s1_zVg-41" value="" style="endArrow=classic;html=1;rounded=0;fontSize=6;entryX=1;entryY=0.5;entryDx=0;entryDy=0;entryPerimeter=0;exitX=0.75;exitY=0;exitDx=0;exitDy=0;" edge="1" parent="1" source="cH-sBmM9aZV_j8s1_zVg-2" target="cH-sBmM9aZV_j8s1_zVg-10">
          <mxGeometry width="50" height="50" relative="1" as="geometry">
            <mxPoint x="390" y="200" as="sourcePoint" />
            <mxPoint x="440" y="150" as="targetPoint" />
            <Array as="points">
              <mxPoint x="384" y="220" />
              <mxPoint x="410" y="220" />
              <mxPoint x="430" y="220" />
              <mxPoint x="430" y="190" />
              <mxPoint x="430" y="120" />
            </Array>
          </mxGeometry>
        </mxCell>
        <mxCell id="cH-sBmM9aZV_j8s1_zVg-42" value="8. update rider &lt;br&gt;plan routes" style="edgeLabel;html=1;align=center;verticalAlign=middle;resizable=0;points=[];fontSize=6;" vertex="1" connectable="0" parent="cH-sBmM9aZV_j8s1_zVg-41">
          <mxGeometry x="0.2264" y="1" relative="1" as="geometry">
            <mxPoint x="-15" y="14" as="offset" />
          </mxGeometry>
        </mxCell>
        <mxCell id="cH-sBmM9aZV_j8s1_zVg-43" value="10. assign order &lt;br&gt;to rider&amp;nbsp;" style="endArrow=classic;html=1;rounded=0;fontSize=6;exitX=0.75;exitY=1;exitDx=0;exitDy=0;" edge="1" parent="1" source="cH-sBmM9aZV_j8s1_zVg-3" target="cH-sBmM9aZV_j8s1_zVg-4">
          <mxGeometry x="-0.243" y="10" width="50" height="50" relative="1" as="geometry">
            <mxPoint x="-50" y="570" as="sourcePoint" />
            <mxPoint x="60" y="410" as="targetPoint" />
            <mxPoint as="offset" />
          </mxGeometry>
        </mxCell>
        <mxCell id="cH-sBmM9aZV_j8s1_zVg-44" value="" style="rounded=0;whiteSpace=wrap;html=1;fontSize=6;align=left;" vertex="1" parent="1">
          <mxGeometry x="290" y="585" width="280" height="315" as="geometry" />
        </mxCell>
        <mxCell id="cH-sBmM9aZV_j8s1_zVg-47" value="Proxy Distribution Service&amp;nbsp;" style="rounded=0;whiteSpace=wrap;html=1;" vertex="1" parent="1">
          <mxGeometry x="294" y="795" width="120" height="60" as="geometry" />
        </mxCell>
        <mxCell id="cH-sBmM9aZV_j8s1_zVg-48" value="LINE-MAN Driver System?" style="rounded=0;whiteSpace=wrap;html=1;" vertex="1" parent="1">
          <mxGeometry x="-50" y="795" width="120" height="60" as="geometry" />
        </mxCell>
        <mxCell id="cH-sBmM9aZV_j8s1_zVg-56" value="Rider&lt;br&gt;PlanRoutes" style="shape=cylinder3;whiteSpace=wrap;html=1;boundedLbl=1;backgroundOutline=1;size=15;" vertex="1" parent="1">
          <mxGeometry x="324" y="635" width="60" height="80" as="geometry" />
        </mxCell>
        <mxCell id="cH-sBmM9aZV_j8s1_zVg-59" value="" style="endArrow=classic;html=1;rounded=0;exitX=1;exitY=0.5;exitDx=0;exitDy=0;" edge="1" parent="1" source="cH-sBmM9aZV_j8s1_zVg-48" target="cH-sBmM9aZV_j8s1_zVg-47">
          <mxGeometry width="50" height="50" relative="1" as="geometry">
            <mxPoint x="460" y="835" as="sourcePoint" />
            <mxPoint x="660" y="835" as="targetPoint" />
          </mxGeometry>
        </mxCell>
        <mxCell id="cH-sBmM9aZV_j8s1_zVg-60" value="which order is PICKUP/DROPOFF &lt;br&gt;by which rider" style="edgeLabel;html=1;align=center;verticalAlign=middle;resizable=0;points=[];fontSize=6;" vertex="1" connectable="0" parent="cH-sBmM9aZV_j8s1_zVg-59">
          <mxGeometry x="0.05" relative="1" as="geometry">
            <mxPoint x="-13" as="offset" />
          </mxGeometry>
        </mxCell>
        <mxCell id="cH-sBmM9aZV_j8s1_zVg-61" value="" style="endArrow=classic;html=1;rounded=0;entryX=0.5;entryY=1;entryDx=0;entryDy=0;entryPerimeter=0;exitX=0.5;exitY=0;exitDx=0;exitDy=0;" edge="1" parent="1" source="cH-sBmM9aZV_j8s1_zVg-47" target="cH-sBmM9aZV_j8s1_zVg-56">
          <mxGeometry width="50" height="50" relative="1" as="geometry">
            <mxPoint x="320" y="935" as="sourcePoint" />
            <mxPoint x="430" y="865" as="targetPoint" />
          </mxGeometry>
        </mxCell>
        <mxCell id="cH-sBmM9aZV_j8s1_zVg-79" value="update rider plan routes&lt;br&gt;" style="edgeLabel;html=1;align=center;verticalAlign=middle;resizable=0;points=[];fontSize=6;" vertex="1" connectable="0" parent="cH-sBmM9aZV_j8s1_zVg-61">
          <mxGeometry x="-0.2" y="-3" relative="1" as="geometry">
            <mxPoint as="offset" />
          </mxGeometry>
        </mxCell>
        <mxCell id="cH-sBmM9aZV_j8s1_zVg-72" value="" style="endArrow=classic;html=1;rounded=0;entryX=1;entryY=0.75;entryDx=0;entryDy=0;exitX=-0.017;exitY=0.867;exitDx=0;exitDy=0;exitPerimeter=0;" edge="1" parent="1" source="cH-sBmM9aZV_j8s1_zVg-47">
          <mxGeometry width="50" height="50" relative="1" as="geometry">
            <mxPoint x="290" y="845" as="sourcePoint" />
            <mxPoint x="67" y="845" as="targetPoint" />
          </mxGeometry>
        </mxCell>
      </root>
    </mxGraphModel>
  </diagram>
</mxfile>
